<svg viewBox="0 0 512.00001 512" xmlns="http://www.w3.org/2000/svg" fill="white"><path d="m450.785156 390.734375v-199.125l39.351563 39.679687 21.300781-21.125-208.433594-210.164062-211.804687 210.074219 21.128906 21.300781 38.4375-38.125v197.484375zm-120.007812-30h-60.003906v-91.007813h60.003906zm90.003906-199.375v199.375h-60.003906v-121.007813h-120.003906v121.007813h-60.003907v-197.238281l122.0625-121.066406zm0 0"/><path d="m300.777344 209.722656c16.539062 0 30-13.457031 30-30 0-16.542968-13.460938-30-30-30-16.542969 0-30.003906 13.457032-30.003906 30 0 16.542969 13.460937 30 30.003906 30zm0 0"/><path d="m446.175781 443.34375 8.394531 8.394531h-305.589843l8.394531-8.394531-21.214844-21.214844-44.609375 44.609375 44.609375 44.609375 21.214844-21.214844-8.394531-8.394531h305.589843l-8.394531 8.394531 21.214844 21.214844 44.609375-44.609375-44.609375-44.609375zm0 0"/><path d="m21.519531 330.28125-21.519531 20.902344 44.605469 45.917968 44.765625-44.761718-21.214844-21.214844-8.394531 8.394531v-258.589843l9.394531 9.394531 21.214844-21.214844-45.609375-45.609375-44.609375 44.609375 21.214844 21.214844 8.394531-8.394531v257.832031zm0 0"/></svg>